#!OML:ASF E:\emotionWalksFemale\Project 1\Capture day 1\Session 1\Female1.ASF
:FULLY-SPECIFIED
:DEGREES
319
root 8.62135 15.5538 -7.80566 -180.31 5.28723 -178.124
lowerback 13.1746 0.779373 1.74745
upperback -4.93398 1.39788 -0.211477
thorax -12.8231 0.52193 -1.56041
lowerneck -6.46527 -0.68233 -3.98019
upperneck -7.19429 0.0683709 5.28978
head -1.16103 0.319277 2.36012
rclavicle -1.79652e-014 1.0138e-014
rhumerus -8.89076 25.4319 -6.21906
rradius 96.8547
rwrist -22.0073
rhand 22.5271 -49.5341
rfingers 7.12502
rthumb 46.8816 -72.2523
lclavicle -1.79652e-014 1.0138e-014
lhumerus -20.3547 -17.4409 9.75161
lradius 107.834
lwrist 18.4201
lhand -0.133648 -36.9118
lfingers 7.12502
lthumb 25.4624 -8.59276
rfemur 3.48661 18.8119 26.7913
rtibia 13.6459
rfoot -12.5338 -27.4087
rtoes -12.0669
lfemur -1.53164 -14.1456 -24.0642
ltibia 23.5796
lfoot -25.1951 23.7749
ltoes -20.2894
320
root 8.63203 15.5514 -7.81834 -180.672 5.07161 -178.327
lowerback 13.7527 0.743534 1.43161
upperback -4.82428 1.28749 -0.23106
thorax -13.0581 0.487767 -1.38751
lowerneck -6.07664 -0.6861 -4.08044
upperneck -7.75405 0.105562 5.31456
head -1.40914 0.345223 2.3913
rclavicle -1.44616e-014 -1.23246e-014
rhumerus -11.0213 23.9068 -9.02223
rradius 96.3789
rwrist -21.6892
rhand 22.1824 -49.6684
rfingers 7.12502
rthumb 46.5624 -72.525
lclavicle -1.44616e-014 -1.23246e-014
lhumerus -21.6646 -15.1461 13.1336
lradius 107.088
lwrist 17.0736
lhand 0.818784 -36.7049
lfingers 7.12502
lthumb 26.3744 -8.51918
rfemur 4.308 19.2016 26.9302
rtibia 13.0977
rfoot -12.2016 -28.1646
rtoes -12.6038
lfemur -1.05645 -14.1821 -24.358
ltibia 23.4214
lfoot -25.618 23.5106
ltoes -18.0286
321
root 8.64319 15.5599 -7.83803 -180.651 4.91127 -178.351
lowerback 13.9815 0.704782 1.30042
upperback -5.09618 1.22532 -0.24141
thorax -13.5185 0.465632 -1.31939
lowerneck -5.38104 -0.623153 -3.93404
upperneck -7.86339 0.127155 5.16748
head -1.56388 0.331109 2.31871
rclavicle 1.7667e-014 3.57812e-015
rhumerus -13.5143 22.6761 -12.285
rradius 95.85
rwrist -21.0361
rhand 21.952 -49.6207
rfingers 7.12502
rthumb 46.349 -72.5685
lclavicle 1.7667e-014 3.57812e-015
lhumerus -24.563 -14.8484 15.5637
lradius 108.543
lwrist 16.8504
lhand 0.405809 -35.8618
lfingers 7.12502
lthumb 25.979 -7.6175
rfemur 4.5678 19.4112 27.0542
rtibia 12.7618
rfoot -11.3106 -28.658
rtoes -14.6353
lfemur -1.02609 -14.279 -24.39
ltibia 23.4231
lfoot -26.0273 23.1915
ltoes -14.8862
322
root 8.65496 15.5745 -7.86188 -180.373 4.74053 -178.08
lowerback 13.7013 0.69188 1.51257
upperback -5.3109 1.26621 -0.196773
thorax -13.5934 0.472537 -1.39856
lowerneck -4.9925 -0.605086 -3.87956
upperneck -7.86724 0.114376 5.11945
head -1.63113 0.31017 2.29438
rclavicle 4.67144e-015 4.77083e-015
rhumerus -16.2082 20.9578 -15.7937
rradius 95.1034
rwrist -20.3769
rhand 21.6366 -49.5649
rfingers 7.12502
rthumb 46.0566 -72.6359
lclavicle 4.67144e-015 4.77083e-015
lhumerus -26.7559 -13.4117 19.0199
lradius 108.114
lwrist 16.551
lhand -0.250565 -36.6264
lfingers 7.12502
lthumb 25.3504 -8.29139
rfemur 4.3359 19.4805 27.3559
rtibia 12.7577
rfoot -10.7435 -28.9519
rtoes -15.5241
lfemur -1.31588 -14.3447 -24.0226
ltibia 23.5373
lfoot -26.1293 22.9078
ltoes -12.7684
323
root 8.66487 15.5874 -7.88584 -180.217 4.51113 -177.893
lowerback 12.5717 0.687531 1.56476
upperback -4.88472 1.24686 -0.0868326
thorax -12.4116 0.480542 -1.27108
lowerneck -5.53746 -0.644777 -3.93771
upperneck -7.93447 0.120011 5.12565
head -1.55929 0.336985 2.30524
rclavicle -6.01324e-015 -3.77691e-015
rhumerus -18.3742 18.2937 -19.0544
rradius 94.2109
rwrist -20.0026
rhand 21.9252 -51.5891
rfingers 7.12502
rthumb 46.3241 -74.5475
lclavicle -6.01324e-015 -3.77691e-015
lhumerus -29.1055 -11.543 22.5418
lradius 108.252
lwrist 16.8013
lhand -1.85102 -37.0776
lfingers 7.12502
lthumb 23.8163 -8.53384
rfemur 4.064 19.4838 27.587
rtibia 13.0982
rfoot -10.8659 -29.1904
rtoes -14.6357
lfemur -1.52252 -14.5712 -23.796
ltibia 23.6812
lfoot -26.0936 22.8537
ltoes -11.8493
324
root 8.67072 15.5926 -7.90945 -180.337 4.19053 -178.027
lowerback 12.4032 0.645817 1.54818
upperback -4.95986 1.17425 -0.225725
thorax -12.3951 0.442461 -1.39547
lowerneck -5.64787 -0.702832 -3.71326
upperneck -7.35917 -0.0285153 5.0902
head -1.34717 0.242701 2.24719
rclavicle -2.88238e-015 -3.77691e-015
rhumerus -21.1653 16.3193 -22.6165
rradius 93.4566
rwrist -19.8206
rhand 21.0488 -50.8128
rfingers 7.12502
rthumb 45.5108 -74.1083
lclavicle -2.88238e-015 -3.77691e-015
lhumerus -31.7176 -10.2269 25.9115
lradius 108.197
lwrist 16.9712
lhand -2.80713 -37.4059
lfingers 7.12502
lthumb 22.8991 -8.74562
rfemur 4.0464 19.2841 27.5334
rtibia 13.6401
rfoot -11.6207 -29.3068
rtoes -12.2432
lfemur -1.42677 -14.8939 -24.0314
ltibia 23.7835
lfoot -25.6102 23.2722
ltoes -14.032
